<svg width="617" height="520" xmlns="http://www.w3.org/2000/svg" version="1.1"><g transform="translate(0, 10)"><g class="links" fill="none" stroke-opacity="0.4"><path d="M5,107.1800995024876C308.5,107.1800995024876,308.5,97.18009950248751,612,97.18009950248751" stroke-width="194.36019900497513" style="stroke: rgb(191, 105, 105);"></path><path d="M5,304.34626865671646C308.5,304.34626865671646,308.5,389.7333333333333,612,389.7333333333333" stroke-width="58.55124378109453" style="stroke: rgb(191, 105, 105);"></path><path d="M5,350.8786069651742C308.5,350.8786069651742,308.5,464.5044776119404,612,464.5044776119404" stroke-width="34.51343283582089" style="stroke: rgb(191, 105, 105);"></path><path d="M5,239.71542288557217C308.5,239.71542288557217,308.5,293.2159203980099,612,293.2159203980099" stroke-width="70.71044776119403" style="stroke: rgb(191, 105, 105);"></path><path d="M5,404.8855721393035C308.5,404.8855721393035,308.5,221.11044776119397,612,221.11044776119397" stroke-width="53.50049751243781" style="stroke: rgb(105, 191, 191);"></path><path d="M5,462.6417910447761C308.5,462.6417910447761,308.5,428.12835820895515,612,428.12835820895515" stroke-width="18.238805970149254" style="stroke: rgb(105, 191, 191);"></path><path d="M5,480.88059701492534C308.5,480.88059701492534,308.5,490.8805970149254,612,490.8805970149254" stroke-width="18.238805970149254" style="stroke: rgb(105, 191, 191);"></path><path d="M5,442.57910447761196C308.5,442.57910447761196,308.5,339.5144278606965,612,339.5144278606965" stroke-width="21.886567164179105" style="stroke: rgb(105, 191, 191);"></path></g><g class="nodes" font-family="Arial, Helvetica" font-size="10"><g><rect x="612" y="447.2477611940299" height="52.75223880597014" width="5" fill="#000"></rect><text x="606" y="473.623880597015" dy="0.35em" text-anchor="end">ArtHum</text></g><g><rect x="612" y="360.45771144278604" height="76.79004975124388" width="5" fill="#000"></rect><text x="606" y="398.852736318408" dy="0.35em" text-anchor="end">Ciencias</text></g><g><rect x="612" y="257.8606965174129" height="92.59701492537312" width="5" fill="#000"></rect><text x="606" y="304.1592039800995" dy="0.35em" text-anchor="end">CSJ</text></g><g><rect x="612" y="-5.684341886080802e-14" height="247.86069651741298" width="5" fill="#000"></rect><text x="606" y="123.93034825870643" dy="0.35em" text-anchor="end">IArq</text></g><g><rect x="0" y="10.000000000000028" height="358.13532338308454" width="5" fill="#000"></rect><text x="11" y="189.0676616915423" dy="0.35em" text-anchor="start">Hombre</text></g><g><rect x="0" y="378.1353233830846" height="111.8646766169154" width="5" fill="#000"></rect><text x="11" y="434.0676616915423" dy="0.35em" text-anchor="start">Mujer</text></g></g></g></svg>